<svg width="20" height="20" viewBox="0 0 20 20" fill="none" xmlns="http://www.w3.org/2000/svg">
<path d="M4.43472 8.06902C6.44611 4.50991 7.45181 2.73035 8.83184 2.27226C9.59105 2.02025 10.4089 2.02025 11.1681 2.27226C12.5481 2.73035 13.5538 4.50991 15.5652 8.06902C17.5766 11.6281 18.5823 13.4077 18.2806 14.8577C18.1146 15.6554 17.7057 16.379 17.1125 16.9247C16.0341 17.9166 14.0228 17.9166 9.99996 17.9166C5.97717 17.9166 3.96577 17.9166 2.88743 16.9247C2.29419 16.379 1.88528 15.6554 1.71931 14.8577C1.41762 13.4077 2.42332 11.6281 4.43472 8.06902Z" stroke="#677487" stroke-width="1.5"/>
<path d="M9.99325 13.3333H10.0007" stroke="#677487" stroke-width="2" stroke-linecap="round" stroke-linejoin="round"/>
<path d="M10 10.8333L10 7.49992" stroke="#677487" stroke-width="1.5" stroke-linecap="round" stroke-linejoin="round"/>
</svg>
