<svg width="20" height="20" viewBox="0 0 20 20" fill="none" xmlns="http://www.w3.org/2000/svg">
<path d="M2.08337 9.99992C2.08337 6.26797 2.08337 4.40199 3.24274 3.24262C4.40211 2.08325 6.26809 2.08325 10 2.08325C13.732 2.08325 15.598 2.08325 16.7573 3.24262C17.9167 4.40199 17.9167 6.26797 17.9167 9.99992C17.9167 13.7319 17.9167 15.5978 16.7573 16.7572C15.598 17.9166 13.732 17.9166 10 17.9166C6.26809 17.9166 4.40211 17.9166 3.24274 16.7572C2.08337 15.5978 2.08337 13.7319 2.08337 9.99992Z" stroke="#677487" stroke-width="1.5"/>
<path d="M13.75 9.58325V9.16659C13.75 8.38091 13.75 7.98807 13.5059 7.744C13.2618 7.49992 12.869 7.49992 12.0833 7.49992H8.33333C7.6061 7.49992 7.24249 7.49992 7.12732 7.26959C7.01216 7.03926 7.23033 6.74837 7.66667 6.16659L7.91667 5.83325M6.25 10.4166V10.8333C6.25 11.6189 6.25 12.0118 6.49408 12.2558C6.73816 12.4999 7.13099 12.4999 7.91667 12.4999H11.6667C12.3939 12.4999 12.7575 12.4999 12.8727 12.7302C12.9878 12.9606 12.7697 13.2515 12.3333 13.8333L12.0833 14.1666" stroke="#677487" stroke-width="1.5" stroke-linecap="round" stroke-linejoin="round"/>
</svg>
