<svg width="51" height="50" viewBox="0 0 51 50" fill="none" xmlns="http://www.w3.org/2000/svg">
<rect x="0.5" width="50" height="50" rx="25" fill="#FFF6E8"/>
<path d="M17.2776 24.9424C16.3296 23.2893 15.8718 21.9395 15.5958 20.5712C15.1876 18.5476 16.1218 16.5708 17.6694 15.3095C18.3234 14.7764 19.0732 14.9585 19.46 15.6524L20.3332 17.2189C21.0253 18.4606 21.3713 19.0814 21.3027 19.7396C21.2341 20.3978 20.7674 20.9339 19.834 22.006L17.2776 24.9424ZM17.2776 24.9424C19.1965 28.2883 22.2078 31.3013 25.5576 33.2224M25.5576 33.2224C27.2107 34.1704 28.5605 34.6282 29.9288 34.9042C31.9524 35.3124 33.9292 34.3782 35.1905 32.8306C35.7236 32.1766 35.5415 31.4268 34.8476 31.04L33.2811 30.1668C32.0394 29.4747 31.4186 29.1287 30.7604 29.1973C30.1022 29.2659 29.5661 29.7326 28.494 30.666L25.5576 33.2224Z" stroke="#FFBC59" stroke-width="1.5" stroke-linejoin="round"/>
<path d="M33.2731 17.2269L26.5 24M33.2731 17.2269C32.7678 16.7216 30.3846 17.2166 29.6649 17.2269M33.2731 17.2269C33.7784 17.7322 33.2834 20.1154 33.2731 20.8351" stroke="#FFBC59" stroke-width="1.5" stroke-linecap="round" stroke-linejoin="round"/>
</svg>
