<svg width="50" height="50" viewBox="0 0 50 50" fill="none" xmlns="http://www.w3.org/2000/svg">
<rect width="50" height="50" rx="25" fill="#F3F8FF"/>
<path d="M30 31L30 29" stroke="#A1C7FF" stroke-width="1.5" stroke-linecap="round"/>
<path d="M25 31L25 28" stroke="#A1C7FF" stroke-width="1.5" stroke-linecap="round"/>
<path d="M20 31L20 26" stroke="#A1C7FF" stroke-width="1.5" stroke-linecap="round"/>
<path d="M19 20C22.1971 23.2683 26.2338 24.0813 30.1413 22.9918M28.6881 21.4713L30.7617 22.4884C31.0076 22.609 31.074 22.8883 30.91 23.1122L29.5269 25" stroke="#A1C7FF" stroke-width="1.5" stroke-linecap="round" stroke-linejoin="round"/>
<path d="M15.5 25C15.5 20.5217 15.5 18.2825 16.8912 16.8912C18.2825 15.5 20.5217 15.5 25 15.5C29.4783 15.5 31.7175 15.5 33.1088 16.8912C34.5 18.2825 34.5 20.5217 34.5 25C34.5 29.4783 34.5 31.7175 33.1088 33.1088C31.7175 34.5 29.4783 34.5 25 34.5C20.5217 34.5 18.2825 34.5 16.8912 33.1088C15.5 31.7175 15.5 29.4783 15.5 25Z" stroke="#A1C7FF" stroke-width="1.5" stroke-linejoin="round"/>
</svg>
