<svg width="51" height="50" viewBox="0 0 51 50" fill="none" xmlns="http://www.w3.org/2000/svg">
<rect x="0.5" width="50" height="50" rx="25" fill="#EFFFFE"/>
<path d="M29 30L22 30" stroke="#5ECAC3" stroke-width="1.5" stroke-linecap="round" stroke-linejoin="round"/>
<path d="M29 26L26 26" stroke="#5ECAC3" stroke-width="1.5" stroke-linecap="round" stroke-linejoin="round"/>
<path d="M33.5 27C33.5 30.7712 33.5 32.6569 32.2552 33.8284C31.0104 35 29.0069 35 25 35H24.2273C20.9661 35 19.3355 35 18.2031 34.2022C17.8786 33.9736 17.5906 33.7025 17.3477 33.3971C16.5 32.3313 16.5 30.7966 16.5 27.7273V25.1818C16.5 22.2186 16.5 20.7371 16.9689 19.5538C17.7228 17.6514 19.3171 16.1509 21.3384 15.4414C22.5956 15 24.1698 15 27.3182 15C29.1173 15 30.0168 15 30.7352 15.2522C31.8902 15.6576 32.8012 16.5151 33.232 17.6021C33.5 18.2783 33.5 19.1249 33.5 20.8182V27Z" stroke="#5ECAC3" stroke-width="1.5" stroke-linejoin="round"/>
<path d="M16.5 25C16.5 23.1591 17.9924 21.6667 19.8333 21.6667C20.4991 21.6667 21.284 21.7833 21.9314 21.6099C22.5065 21.4558 22.9558 21.0065 23.1099 20.4314C23.2833 19.784 23.1667 18.9991 23.1667 18.3333C23.1667 16.4924 24.6591 15 26.5 15" stroke="#5ECAC3" stroke-width="1.5" stroke-linecap="round" stroke-linejoin="round"/>
</svg>
