<svg width="20" height="20" viewBox="0 0 20 20" fill="none" xmlns="http://www.w3.org/2000/svg">
<g clip-path="url(#clip0_1294_299)">
<path d="M3.15728 7.53099C2.56779 7.85008 1.02219 8.50164 1.96357 9.31696C2.42342 9.71524 2.93558 10.0001 3.57949 10.0001H7.25376C7.89767 10.0001 8.40983 9.71524 8.86968 9.31696C9.81106 8.50164 8.26546 7.85008 7.67597 7.53098C6.29363 6.78271 4.53962 6.78271 3.15728 7.53099Z" stroke="#677487" stroke-width="1.5"/>
<path d="M7.29163 3.56069C7.29163 4.60668 6.45216 5.45463 5.41663 5.45463C4.38109 5.45463 3.54163 4.60668 3.54163 3.56069C3.54163 2.51469 4.38109 1.66675 5.41663 1.66675C6.45216 1.66675 7.29163 2.51469 7.29163 3.56069Z" stroke="#677487" stroke-width="1.5"/>
<path d="M3.33325 12.5C3.33325 15.2643 5.56897 17.5 8.33325 17.5L7.61897 16.0714" stroke="#677487" stroke-width="1.5" stroke-linecap="round" stroke-linejoin="round"/>
<path d="M16.6666 7.5C16.6666 4.73572 14.4309 2.5 11.6666 2.5L12.3809 3.92857" stroke="#677487" stroke-width="1.5" stroke-linecap="round" stroke-linejoin="round"/>
<path d="M12.3239 15.8642C11.7344 16.1833 10.1888 16.8349 11.1302 17.6502C11.59 18.0485 12.1022 18.3333 12.7461 18.3333H16.4204C17.0643 18.3333 17.5765 18.0485 18.0363 17.6502C18.9777 16.8349 17.4321 16.1833 16.8426 15.8642C15.4603 15.116 13.7062 15.116 12.3239 15.8642Z" stroke="#677487" stroke-width="1.5"/>
<path d="M16.4583 11.8939C16.4583 12.9399 15.6188 13.7879 14.5833 13.7879C13.5477 13.7879 12.7083 12.9399 12.7083 11.8939C12.7083 10.8479 13.5477 10 14.5833 10C15.6188 10 16.4583 10.8479 16.4583 11.8939Z" stroke="#677487" stroke-width="1.5"/>
</g>
<defs>
<clipPath id="clip0_1294_299">
<rect width="20" height="20" fill="white"/>
</clipPath>
</defs>
</svg>
