<svg width="20" height="20" viewBox="0 0 20 20" fill="none" xmlns="http://www.w3.org/2000/svg">
<path d="M12.5 2.0835V3.3335C12.5 4.51201 12.5 5.10126 12.8661 5.46738C13.2322 5.8335 13.8215 5.8335 15 5.8335H16.25" stroke="#677487" stroke-width="1.5" stroke-linecap="round" stroke-linejoin="round"/>
<path d="M3.33337 13.3334V6.66675C3.33337 4.30973 3.33337 3.13121 4.06561 2.39898C4.79784 1.66675 5.97635 1.66675 8.33337 1.66675H11.8097C12.1503 1.66675 12.3206 1.66675 12.4738 1.73018C12.6269 1.79362 12.7473 1.91404 12.9882 2.1549L16.1786 5.34526C16.4194 5.58612 16.5398 5.70655 16.6033 5.85969C16.6667 6.01283 16.6667 6.18315 16.6667 6.52377V13.3334C16.6667 15.6904 16.6667 16.8689 15.9345 17.6012C15.2022 18.3334 14.0237 18.3334 11.6667 18.3334H8.33337C5.97635 18.3334 4.79784 18.3334 4.06561 17.6012C3.33337 16.8689 3.33337 15.6904 3.33337 13.3334Z" stroke="#677487" stroke-width="1.5" stroke-linecap="round" stroke-linejoin="round"/>
<path d="M6.66675 9.16675H13.3334M6.66675 11.6667H13.3334M6.66675 14.1667H10.1424" stroke="#677487" stroke-width="1.5" stroke-linecap="round" stroke-linejoin="round"/>
</svg>
