<svg width="20" height="20" viewBox="0 0 20 20" fill="none" xmlns="http://www.w3.org/2000/svg">
<g clip-path="url(#clip0_1294_305)">
<path d="M1.66663 8.33342C2.31636 5.15349 4.72428 2.60785 7.83845 1.74155C8.09985 1.66884 8.23055 1.63248 8.30095 1.71038C8.37136 1.78828 8.31949 1.91709 8.21577 2.17471L7.49996 3.75008M11.6666 1.66675C14.8466 2.31648 17.3922 4.7244 18.2585 7.83857C18.3312 8.09997 18.3676 8.23067 18.2897 8.30108C18.2118 8.37148 18.0829 8.31962 17.8253 8.21589L16.25 7.50008M18.3333 11.6667C17.6836 14.8467 15.2756 17.3923 12.1615 18.2586C11.9001 18.3313 11.7694 18.3677 11.699 18.2898C11.6286 18.2119 11.6804 18.0831 11.7841 17.8254L12.5 16.2501M8.33329 18.3334C5.15337 17.6837 2.60773 15.2758 1.74143 12.1616C1.66872 11.9002 1.63236 11.7695 1.71026 11.6991C1.78816 11.6287 1.91697 11.6805 2.17459 11.7843L3.74996 12.5001" stroke="#677487" stroke-width="1.5" stroke-linecap="round"/>
<path d="M9.99985 9.24911C8.90613 9.99926 7.58214 11.4829 7.08325 13.75M7.8124 11.7529C6.08583 7.75791 9.56873 6.41056 12.2197 6.26076C12.5397 6.24268 12.6996 6.23364 12.8145 6.3502C12.9294 6.46676 12.9228 6.63291 12.9095 6.96523C12.7995 9.72846 11.6979 13.5303 7.8124 11.7529Z" stroke="#677487" stroke-width="1.5" stroke-linecap="round" stroke-linejoin="round"/>
</g>
<defs>
<clipPath id="clip0_1294_305">
<rect width="20" height="20" fill="white"/>
</clipPath>
</defs>
</svg>
