<svg width="151" height="40" viewBox="0 0 151 40" fill="none" xmlns="http://www.w3.org/2000/svg">
<g clip-path="url(#clip0_1294_253)">
<path d="M137.48 17.2342C137.48 17.0296 137.518 16.8353 137.595 16.6515C137.671 16.4712 137.779 16.3116 137.914 16.1764C138.049 16.0411 138.209 15.937 138.389 15.8573C138.569 15.781 138.764 15.7428 138.972 15.7428H146.519C146.723 15.7428 146.918 15.781 147.101 15.8573C147.282 15.9336 147.441 16.0411 147.577 16.1764C147.712 16.3116 147.819 16.4712 147.896 16.6515C147.972 16.8319 148.01 17.0261 148.01 17.2342V21.7915C148.01 21.9823 147.968 22.1696 147.885 22.3465C147.802 22.5268 147.691 22.6829 147.552 22.8216C147.414 22.9604 147.257 23.0713 147.077 23.1546C146.897 23.2378 146.713 23.2794 146.522 23.2794H138.975C138.784 23.2794 138.597 23.2378 138.42 23.1546C138.243 23.0713 138.084 22.9604 137.945 22.8216C137.806 22.6829 137.695 22.5268 137.612 22.3465C137.529 22.1661 137.487 21.9823 137.487 21.7915V17.2342H137.48ZM136.735 24.8957C136.95 25.0448 137.175 25.1697 137.418 25.2772C137.657 25.3847 137.907 25.4645 138.167 25.5234C138.427 25.5824 138.694 25.6101 138.972 25.6101H146.519C146.793 25.6101 147.063 25.5824 147.323 25.5234C147.583 25.4645 147.833 25.3847 148.073 25.2772C148.312 25.1697 148.541 25.0448 148.756 24.8957C148.971 24.7465 149.168 24.5835 149.352 24.4066C149.734 24.039 150.029 23.6124 150.24 23.1338C150.452 22.6517 150.556 22.1349 150.556 21.5765V17.4458C150.556 16.8874 150.452 16.374 150.247 15.9024C150.043 15.4307 149.744 15.0006 149.352 14.6121C148.964 14.2237 148.534 13.9254 148.062 13.7208C147.59 13.5162 147.077 13.4121 146.522 13.4121H138.975C138.42 13.4121 137.907 13.5162 137.435 13.7208C136.964 13.9254 136.533 14.2237 136.145 14.6121C135.757 15.0006 135.458 15.4307 135.25 15.9024C135.042 16.374 134.941 16.8874 134.941 17.4458V21.5765C134.941 22.1349 135.046 22.6517 135.257 23.1338C135.469 23.6159 135.763 24.039 136.145 24.4066C136.329 24.5835 136.527 24.7465 136.742 24.8957H136.735ZM119.875 18.4793V15.7428H129.555C129.749 15.7428 129.919 15.781 130.062 15.8607C130.207 15.9405 130.325 16.0411 130.419 16.1694C130.512 16.2977 130.582 16.4434 130.63 16.6064C130.675 16.7694 130.7 16.9394 130.696 17.1093C130.696 17.2793 130.669 17.4492 130.623 17.6122C130.575 17.7752 130.506 17.9209 130.408 18.0492C130.311 18.1776 130.193 18.2816 130.051 18.3579C129.909 18.4342 129.743 18.4758 129.555 18.4758H119.875V18.4793ZM118.155 13.5127C117.985 13.5786 117.836 13.6757 117.711 13.7971C117.586 13.922 117.492 14.0676 117.427 14.2376C117.361 14.4075 117.326 14.5983 117.326 14.8098V25.6101H119.875V20.81H126.396L130.318 25.6101H133.478L129.559 20.81H129.607C130.016 20.81 130.391 20.7615 130.728 20.6678C131.067 20.5707 131.369 20.4389 131.64 20.269C131.91 20.099 132.146 19.8978 132.347 19.6655C132.548 19.4331 132.718 19.1799 132.85 18.9059C132.982 18.6319 133.082 18.3406 133.152 18.0354C133.218 17.7302 133.252 17.4215 133.252 17.1128C133.252 16.8076 133.225 16.5058 133.155 16.2041C133.086 15.9024 132.989 15.6145 132.854 15.3405C132.722 15.0665 132.552 14.8098 132.351 14.5775C132.15 14.3451 131.914 14.1405 131.64 13.967C131.369 13.7971 131.064 13.6618 130.724 13.5612C130.384 13.4607 130.013 13.4121 129.604 13.4121H118.727C118.519 13.4121 118.328 13.4468 118.155 13.5127ZM102.1 18.4793V15.7428H111.78C111.974 15.7428 112.144 15.781 112.287 15.8607C112.429 15.9405 112.55 16.0411 112.644 16.1694C112.737 16.2977 112.81 16.4434 112.855 16.6064C112.9 16.7694 112.925 16.9394 112.925 17.1093C112.925 17.2793 112.897 17.4492 112.852 17.6122C112.803 17.7752 112.73 17.9209 112.637 18.0492C112.54 18.1776 112.422 18.2816 112.28 18.3579C112.137 18.4377 111.971 18.4758 111.784 18.4758H102.104L102.1 18.4793ZM100.38 13.5127C100.21 13.5786 100.061 13.6757 99.9393 13.7971C99.8145 13.922 99.7208 14.0676 99.6549 14.2376C99.589 14.4075 99.5543 14.5983 99.5543 14.8098V25.6101H102.104V20.81H111.832C112.241 20.81 112.616 20.7615 112.952 20.6678C113.292 20.5707 113.594 20.4389 113.865 20.269C114.135 20.099 114.371 19.8978 114.572 19.6655C114.773 19.4331 114.943 19.1799 115.075 18.9059C115.21 18.6319 115.307 18.3406 115.377 18.0354C115.443 17.7302 115.477 17.4215 115.477 17.1128C115.477 16.8076 115.45 16.5058 115.38 16.2041C115.314 15.9024 115.214 15.6145 115.078 15.3405C114.947 15.0665 114.777 14.8098 114.576 14.5775C114.374 14.3451 114.139 14.1405 113.865 13.967C113.594 13.7971 113.289 13.6618 112.949 13.5612C112.609 13.4607 112.238 13.4121 111.829 13.4121H100.952C100.744 13.4121 100.553 13.4468 100.38 13.5127ZM83.888 13.6167C83.4995 13.752 83.1596 13.9393 82.8648 14.1751C82.5735 14.411 82.3307 14.685 82.1365 14.9971C81.9423 15.3093 81.7966 15.6422 81.696 15.996C81.5954 16.3498 81.5469 16.7105 81.5469 17.0816C81.5469 17.4527 81.5954 17.8134 81.6891 18.1672C81.7827 18.5209 81.9319 18.8539 82.1261 19.166C82.3203 19.4782 82.5631 19.7522 82.8544 19.988C83.1458 20.2239 83.4891 20.4077 83.8776 20.5464C84.2695 20.6817 84.7065 20.7511 85.1955 20.7511L94.0051 20.7649C94.1958 20.7649 94.3657 20.7996 94.5079 20.8724C94.6536 20.9453 94.7715 21.0355 94.8687 21.143C94.9658 21.254 95.0351 21.3788 95.0837 21.5141C95.1322 21.6528 95.1565 21.7881 95.1565 21.9164C95.1565 22.0586 95.1322 22.2112 95.0837 22.3708C95.0351 22.5303 94.9658 22.6794 94.8687 22.8147C94.7715 22.95 94.6536 23.0609 94.5079 23.1511C94.3657 23.2413 94.1958 23.2829 94.0051 23.2829H81.9839V25.6136H94.0501C94.4559 25.6136 94.8305 25.5651 95.1704 25.4645C95.5103 25.3674 95.8155 25.2321 96.086 25.0587C96.3566 24.8887 96.5924 24.6841 96.797 24.4483C96.9982 24.2124 97.1681 23.9592 97.2999 23.6852C97.4317 23.4112 97.5323 23.1234 97.6017 22.8216C97.6711 22.5199 97.7023 22.2181 97.6988 21.9129C97.6988 21.6008 97.6641 21.2921 97.5982 20.9869C97.5323 20.6852 97.4317 20.3938 97.2965 20.1198C97.1612 19.8458 96.9947 19.5926 96.7936 19.3603C96.5924 19.1279 96.3566 18.9267 96.086 18.7568C95.8155 18.5868 95.5103 18.455 95.1739 18.3579C94.8374 18.2608 94.4629 18.2157 94.0536 18.2157L85.2441 18.2018C85.0568 18.2018 84.8903 18.1672 84.7481 18.0978C84.6059 18.0284 84.488 17.9348 84.3909 17.8203C84.2938 17.7059 84.2244 17.5741 84.1759 17.4249C84.1273 17.2793 84.103 17.1267 84.103 16.9741C84.103 16.8215 84.1238 16.6689 84.1724 16.5232C84.2175 16.3775 84.2903 16.2457 84.384 16.1278C84.4776 16.0133 84.599 15.9197 84.7412 15.8503C84.8869 15.781 85.0533 15.7463 85.2476 15.7463H97.293V13.4156H85.199C84.7134 13.4156 84.2764 13.4849 83.888 13.6202V13.6167ZM62.1903 25.6101H64.7395V17.255L69.7754 24.8263C69.8379 24.92 69.9072 25.0171 69.9905 25.1211C70.0702 25.2252 70.1604 25.3223 70.261 25.409C70.3616 25.4957 70.4656 25.5685 70.5801 25.6275C70.6945 25.6865 70.8125 25.7142 70.9339 25.7142C71.0553 25.7142 71.1766 25.6865 71.2911 25.6275C71.4055 25.5685 71.5096 25.4957 71.6102 25.409C71.7073 25.3223 71.8009 25.2252 71.8842 25.1211C71.9674 25.0171 72.0402 24.9165 72.0992 24.8263L77.1317 17.2619V25.6101H79.6809L79.6705 14.8098C79.6705 14.6017 79.6358 14.411 79.5699 14.2376C79.504 14.0676 79.4069 13.9185 79.2855 13.7971C79.1607 13.6722 79.015 13.5786 78.8416 13.5127C78.6682 13.4468 78.4809 13.4121 78.2693 13.4121H77.2427C77.1421 13.4121 77.045 13.426 76.9479 13.4503C76.8508 13.478 76.7571 13.5127 76.6704 13.5612C76.5837 13.6098 76.5005 13.6653 76.4242 13.7347C76.3479 13.8006 76.282 13.8769 76.2265 13.9566L70.9373 21.9684L65.6482 13.9566C65.5927 13.8769 65.5268 13.8006 65.4505 13.7347C65.3742 13.6688 65.2944 13.6098 65.2042 13.5612C65.1175 13.5127 65.0239 13.478 64.9267 13.4503C64.8296 13.4225 64.7325 13.4121 64.6319 13.4121H63.5984C63.3903 13.4121 63.1995 13.4468 63.0261 13.5127C62.8527 13.5786 62.707 13.6757 62.5822 13.7971C62.4573 13.922 62.3637 14.0676 62.2978 14.2376C62.2319 14.4075 62.1972 14.5983 62.1972 14.8098L62.1868 25.6101H62.1903ZM57.2098 25.6101H59.759V13.4121H57.2098V25.6101ZM38.1861 25.6101H42.1053L46.9609 21.0632L51.82 25.6101H55.7392L48.9448 19.2077L55.1322 13.4121H51.1229L46.9609 17.3313L42.7989 13.4121H38.7896L44.977 19.2077L38.1826 25.6101H38.1861Z" fill="#25282B"/>
<path d="M27.3371 3.0731L22.1902 9.42704L20.0814 6.90558L19.7277 6.47551L24.4099 0.700772C24.9856 -0.0136995 25.9914 -0.204456 26.7891 0.246424H26.803C27.8158 0.825631 28.0689 2.1644 27.3406 3.06963" fill="#1E4DA1"/>
<path d="M27.136 39.7398C26.8412 39.9132 26.5152 39.9964 26.1892 39.9964C25.6481 39.9964 25.114 39.764 24.7463 39.3236L19.8768 33.4933L20.2237 33.0633L22.2873 30.521L27.632 36.9166C28.3742 37.8079 28.1418 39.1536 27.136 39.7398Z" fill="#1E4DA1"/>
<path d="M35.5397 32.3006L27.9371 23.1997L27.8539 23.3732C27.6076 23.8691 27.299 24.3443 26.9383 24.7882L25.6689 26.3524L32.6575 34.7111C33.2471 35.4151 34.2529 35.5885 35.0472 35.1307C36.0495 34.5411 36.2888 33.1919 35.5431 32.3006M34.7905 4.76916H34.7766C33.9789 4.31134 32.9696 4.5021 32.3904 5.21657L25.6411 13.5544L25.9914 13.974L26.8516 15.0076C27.2608 15.4966 27.6076 16.0238 27.8643 16.5649C27.8886 16.61 27.9094 16.6585 27.9302 16.7036L35.3246 7.58196C36.0564 6.6802 35.7998 5.34143 34.794 4.76916" fill="#1E4DA1"/>
<path d="M25.3429 22.1105C25.1833 22.433 24.9891 22.7348 24.7533 23.0261L23.8376 24.1568L22.9879 25.2077L20.4526 28.3361L19.6028 29.38L18.0455 31.305L17.1958 32.3559L11.5667 39.3063C10.991 40.0208 9.9852 40.2116 9.18749 39.7607L9.17362 39.7503C8.16087 39.1815 7.90768 37.8358 8.63603 36.934L14.7333 29.4113L15.5831 28.3604L17.1473 26.4354L17.9935 25.3915L20.7161 22.0307L21.4306 21.1497C21.7011 20.8133 21.8468 20.4318 21.8642 20.0329V19.9948C21.8676 19.9428 21.8676 19.8907 21.8607 19.8422V19.811C21.8364 19.4295 21.6838 19.0445 21.4063 18.7185L20.6502 17.8132L17.9866 14.6189L17.123 13.5888L15.5206 11.6743L14.657 10.6373L8.34469 3.08679C7.60247 2.19544 7.83485 0.846267 8.84066 0.256655C9.13546 0.0832394 9.46148 0 9.78404 0C10.3251 0 10.8627 0.232377 11.2303 0.67632L17.064 7.65803L17.9276 8.69505L19.53 10.6096L20.3936 11.6396L22.9844 14.7403L23.848 15.7704L24.6978 16.7935C24.9648 17.1126 25.1868 17.4456 25.3498 17.7959C26.0504 19.1624 26.0469 20.737 25.3463 22.1105" fill="#1E4DA1"/>
<path d="M25.3429 22.1105C25.1833 22.433 24.9891 22.7348 24.7533 23.0261L23.8376 24.1568L22.9879 25.2077L20.4526 28.3361L19.6028 29.38L18.0455 31.305L17.1958 32.3559L11.5667 39.3063C10.991 40.0208 9.9852 40.2116 9.18749 39.7607L9.17362 39.7503C8.16087 39.1815 7.90768 37.8358 8.63603 36.934L14.7333 29.4113L15.5831 28.3604L17.1473 26.4354L17.9935 25.3915L20.7161 22.0307L21.4306 21.1497C21.7011 20.8133 21.8468 20.4318 21.8642 20.0329V19.9948C21.8676 19.9428 21.8676 19.8907 21.8607 19.8422V19.811C21.8364 19.4295 21.6838 19.0445 21.4063 18.7185L20.6502 17.8132L17.9866 14.6189L17.123 13.5888L15.5206 11.6743L14.657 10.6373L8.34469 3.08679C7.60247 2.19544 7.83485 0.846267 8.84066 0.256655C9.13546 0.0832394 9.46148 0 9.78404 0C10.3251 0 10.8627 0.232377 11.2303 0.67632L17.064 7.65803L17.9276 8.69505L19.53 10.6096L20.3936 11.6396L22.9844 14.7403L23.848 15.7704L24.6978 16.7935C24.9648 17.1126 25.1868 17.4456 25.3498 17.7959C26.0504 19.1624 26.0469 20.737 25.3463 22.1105" fill="#1E4DA1"/>
<path d="M25.3429 22.1105C25.1833 22.433 24.9891 22.7348 24.7533 23.0261L23.8376 24.1568L22.9879 25.2077L20.4526 28.3361L19.6028 29.38L18.0455 31.305L17.1958 32.3559L11.5667 39.3063C10.991 40.0208 9.9852 40.2116 9.18749 39.7607L9.17362 39.7503C8.16087 39.1815 7.90768 37.8358 8.63603 36.934L14.7333 29.4113L15.5831 28.3604L17.1473 26.4354L17.9935 25.3915L20.7161 22.0307L21.4306 21.1497C21.7011 20.8133 21.8468 20.4318 21.8642 20.0329V19.9948C21.8676 19.9428 21.8676 19.8907 21.8607 19.8422V19.811C21.8364 19.4295 21.6838 19.0445 21.4063 18.7185L20.6502 17.8132L17.9866 14.6189L17.123 13.5888L15.5206 11.6743L14.657 10.6373L8.34469 3.08679C7.60247 2.19544 7.83485 0.846267 8.84066 0.256655C9.13546 0.0832394 9.46148 0 9.78404 0C10.3251 0 10.8627 0.232377 11.2303 0.67632L17.064 7.65803L17.9276 8.69505L19.53 10.6096L20.3936 11.6396L22.9844 14.7403L23.848 15.7704L24.6978 16.7935C24.9648 17.1126 25.1868 17.4456 25.3498 17.7959C26.0504 19.1624 26.0469 20.737 25.3463 22.1105" fill="#1E4DA1"/>
<path d="M14.1195 20.1958C14.116 21.212 13.7518 22.2317 13.0478 23.0988L12.1321 24.2294L3.58624 34.787C3.00703 35.498 1.99775 35.6887 1.20004 35.2413L1.18617 35.2309C0.176889 34.6621 -0.0797662 33.3164 0.655515 32.4147L9.72514 21.2155C10.1552 20.6848 10.228 20.0085 9.9263 19.4432L9.77717 19.1172C9.52051 18.6871 8.73667 17.6327 8.50777 17.3622L0.437012 7.70296C-0.308675 6.80813 -0.0728296 5.46243 0.93298 4.87628C1.23125 4.70287 1.55728 4.61963 1.87983 4.61963C2.42088 4.61963 2.95154 4.85201 3.32264 5.29248L11.7992 15.4408C11.8408 15.4928 11.9691 15.6419 12.1321 15.8535C12.5657 16.4049 13.2906 17.3761 13.6027 18.1044C13.9218 18.6975 14.0883 19.3426 14.116 19.9808C14.1126 20.0571 14.1126 20.1264 14.1195 20.1993" fill="#1E4DA1"/>
</g>
<defs>
<clipPath id="clip0_1294_253">
<rect width="150.549" height="40" fill="white"/>
</clipPath>
</defs>
</svg>
