<svg width="20" height="20" viewBox="0 0 20 20" fill="none" xmlns="http://www.w3.org/2000/svg">
<g clip-path="url(#clip0_1294_271)">
<path d="M11.6666 5.00008H18.3333M15 1.66675L15 8.33341" stroke="#677487" stroke-width="1.5" stroke-linecap="round" stroke-linejoin="round"/>
<path d="M5.0823 16.25C3.99888 16.1434 3.18725 15.818 2.64294 15.2737C1.66663 14.2974 1.66663 12.726 1.66663 9.58333V9.16667C1.66663 6.02397 1.66663 4.45262 2.64294 3.47631C3.61925 2.5 5.1906 2.5 8.33329 2.5H9.58329M5.41663 15C5.24541 15.8349 4.48137 17.6388 5.26304 18.2209C5.67162 18.5182 6.3227 18.2007 7.62485 17.5657C8.53873 17.1201 9.46348 16.6091 10.4621 16.3792C10.8276 16.2959 11.1996 16.2604 11.6666 16.25C14.8093 16.25 16.3807 16.25 17.357 15.2737C18.2892 14.3415 18.3313 12.8669 18.3332 10" stroke="#677487" stroke-width="1.5" stroke-linecap="round"/>
<path d="M6.66663 11.6667H11.6666M6.66663 7.5H9.16663" stroke="#677487" stroke-width="1.5" stroke-linecap="round" stroke-linejoin="round"/>
</g>
<defs>
<clipPath id="clip0_1294_271">
<rect width="20" height="20" fill="white"/>
</clipPath>
</defs>
</svg>
