<svg width="20" height="20" viewBox="0 0 20 20" fill="none" xmlns="http://www.w3.org/2000/svg">
<g clip-path="url(#clip0_1294_265)">
<path d="M8.33329 5.00016C8.33329 3.15921 6.84091 1.66683 4.99996 1.66683C3.15901 1.66683 1.66663 3.15921 1.66663 5.00016C1.66663 6.84111 3.15901 8.3335 4.99996 8.3335C6.84091 8.3335 8.33329 6.84111 8.33329 5.00016Z" stroke="white" stroke-width="1.5"/>
<path d="M8.33329 15.0002C8.33329 13.1592 6.84091 11.6668 4.99996 11.6668C3.15901 11.6668 1.66663 13.1592 1.66663 15.0002C1.66663 16.8411 3.15901 18.3335 4.99996 18.3335C6.84091 18.3335 8.33329 16.8411 8.33329 15.0002Z" stroke="white" stroke-width="1.5"/>
<path d="M18.3333 5.00016C18.3333 3.15921 16.8409 1.66683 15 1.66683C13.159 1.66683 11.6666 3.15921 11.6666 5.00016C11.6666 6.84111 13.159 8.3335 15 8.3335C16.8409 8.3335 18.3333 6.84111 18.3333 5.00016Z" stroke="white" stroke-width="1.5"/>
<path d="M18.3333 15.0002C18.3333 13.1592 16.8409 11.6668 15 11.6668C13.159 11.6668 11.6666 13.1592 11.6666 15.0002C11.6666 16.8411 13.159 18.3335 15 18.3335C16.8409 18.3335 18.3333 16.8411 18.3333 15.0002Z" stroke="white" stroke-width="1.5"/>
</g>
<defs>
<clipPath id="clip0_1294_265">
<rect width="20" height="20" fill="white"/>
</clipPath>
</defs>
</svg>
