<svg width="20" height="20" viewBox="0 0 20 20" fill="none" xmlns="http://www.w3.org/2000/svg">
<path d="M2.10819 12.3079C1.93098 13.4695 2.72325 14.2759 3.6933 14.6777C7.41226 16.2183 12.5876 16.2183 16.3065 14.6777C17.2766 14.2759 18.0689 13.4695 17.8916 12.3079C17.7827 11.5939 17.2442 10.9994 16.8452 10.4189C16.3227 9.64923 16.2707 8.80969 16.2706 7.9165C16.2706 4.46472 13.4631 1.6665 9.99992 1.6665C6.53669 1.6665 3.72919 4.46472 3.72919 7.9165C3.72911 8.80969 3.67719 9.64923 3.15459 10.4189C2.75562 10.9994 2.2171 11.5939 2.10819 12.3079Z" stroke="#677487" stroke-width="1.5" stroke-linecap="round" stroke-linejoin="round"/>
<path d="M6.6665 15.833C7.04858 17.2707 8.39611 18.333 9.99984 18.333C11.6036 18.333 12.9511 17.2707 13.3332 15.833" stroke="#677487" stroke-width="1.5" stroke-linecap="round" stroke-linejoin="round"/>
</svg>
