<svg width="20" height="20" viewBox="0 0 20 20" fill="none" xmlns="http://www.w3.org/2000/svg">
<path d="M5.41675 14.5833L5.41675 12.0833M9.58342 14.5833L9.58342 7.08325M13.7501 14.5833V11.2499" stroke="#677487" stroke-width="1.5" stroke-linecap="round"/>
<path d="M17.9167 4.58325C17.9167 5.96396 16.7975 7.08325 15.4167 7.08325C14.036 7.08325 12.9167 5.96396 12.9167 4.58325C12.9167 3.20254 14.036 2.08325 15.4167 2.08325C16.7975 2.08325 17.9167 3.20254 17.9167 4.58325Z" stroke="#677487" stroke-width="1.5"/>
<path d="M17.913 9.16659C17.913 9.16659 17.9167 9.44953 17.9167 9.99994C17.9167 13.7319 17.9167 15.5979 16.7573 16.7572C15.598 17.9166 13.732 17.9166 10 17.9166C6.26809 17.9166 4.40211 17.9166 3.24274 16.7572C2.08337 15.5979 2.08337 13.7319 2.08337 9.99994C2.08337 6.26799 2.08337 4.40202 3.24274 3.24265C4.40211 2.08328 6.26809 2.08328 10 2.08328L10.8334 2.08325" stroke="#677487" stroke-width="1.5" stroke-linecap="round" stroke-linejoin="round"/>
</svg>
