<svg width="20" height="20" viewBox="0 0 20 20" fill="none" xmlns="http://www.w3.org/2000/svg">
<g clip-path="url(#clip0_1294_277)">
<path d="M13.5902 3.65337C13.0977 3.65337 12.8514 3.65337 12.6271 3.57012C12.5959 3.55856 12.5652 3.54584 12.535 3.53198C12.3175 3.4322 12.1433 3.25807 11.7951 2.9098C10.9935 2.10822 10.5927 1.70743 10.0996 1.67047C10.0333 1.66551 9.96666 1.66551 9.90036 1.67047C9.40721 1.70743 9.00642 2.10822 8.20484 2.9098C7.85657 3.25807 7.68244 3.4322 7.46493 3.53198C7.43473 3.54584 7.40401 3.55856 7.37285 3.57012C7.1485 3.65337 6.90224 3.65337 6.40971 3.65337H6.31886C5.06228 3.65337 4.43399 3.65337 4.04361 4.04374C3.65324 4.43411 3.65324 5.0624 3.65324 6.31899V6.40984C3.65324 6.90236 3.65324 7.14862 3.57 7.37297C3.55844 7.40413 3.54572 7.43485 3.53186 7.46506C3.43208 7.68256 3.25795 7.85669 2.90968 8.20496C2.1081 9.00654 1.70731 9.40733 1.67035 9.90048C1.66538 9.96679 1.66538 10.0334 1.67035 10.0997C1.70731 10.5928 2.1081 10.9936 2.90968 11.7952C3.25795 12.1435 3.43208 12.3176 3.53186 12.5351C3.54572 12.5653 3.55844 12.596 3.57 12.6272C3.65324 12.8515 3.65324 13.0978 3.65324 13.5903V13.6812C3.65324 14.9378 3.65324 15.5661 4.04361 15.9564C4.43399 16.3468 5.06228 16.3468 6.31886 16.3468H6.40971C6.90224 16.3468 7.1485 16.3468 7.37285 16.43C7.40401 16.4416 7.43473 16.4543 7.46493 16.4682C7.68244 16.568 7.85657 16.7421 8.20484 17.0904C9.00642 17.8919 9.40721 18.2927 9.90036 18.3297C9.96666 18.3347 10.0333 18.3347 10.0996 18.3297C10.5927 18.2927 10.9935 17.8919 11.7951 17.0904C12.1433 16.7421 12.3175 16.568 12.535 16.4682C12.5652 16.4543 12.5959 16.4416 12.6271 16.43C12.8514 16.3468 13.0977 16.3468 13.5902 16.3468H13.6811C14.9376 16.3468 15.5659 16.3468 15.9563 15.9564C16.3467 15.5661 16.3467 14.9378 16.3467 13.6812V13.5903C16.3467 13.0978 16.3467 12.8515 16.4299 12.6272C16.4415 12.596 16.4542 12.5653 16.4681 12.5351C16.5678 12.3176 16.742 12.1435 17.0902 11.7952C17.8918 10.9936 18.2926 10.5928 18.3296 10.0997C18.3345 10.0334 18.3345 9.96679 18.3296 9.90048C18.2926 9.40733 17.8918 9.00654 17.0902 8.20496C16.742 7.85669 16.5678 7.68256 16.4681 7.46506C16.4542 7.43485 16.4415 7.40413 16.4299 7.37297C16.3467 7.14862 16.3467 6.90236 16.3467 6.40984V6.31899C16.3467 5.0624 16.3467 4.43411 15.9563 4.04374C15.5659 3.65337 14.9376 3.65337 13.6811 3.65337H13.5902Z" stroke="#677487" stroke-width="1.5"/>
<path d="M10.2017 13.3334V10.0001C10.2017 9.60724 10.2017 9.41083 10.0797 9.28879C9.95766 9.16675 9.76125 9.16675 9.36841 9.16675" stroke="#677487" stroke-width="1.5" stroke-linecap="round" stroke-linejoin="round"/>
<path d="M9.99325 6.66675H10.0007" stroke="#677487" stroke-width="2" stroke-linecap="round" stroke-linejoin="round"/>
</g>
<defs>
<clipPath id="clip0_1294_277">
<rect width="20" height="20" fill="white"/>
</clipPath>
</defs>
</svg>
