<svg width="20" height="20" viewBox="0 0 20 20" fill="none" xmlns="http://www.w3.org/2000/svg">
<path d="M17.7645 5.95132L17.3532 5.23749C17.0421 4.69763 16.8865 4.4277 16.6219 4.32006C16.3573 4.21243 16.0579 4.29736 15.4593 4.46723L14.4425 4.75365C14.0603 4.84178 13.6593 4.79178 13.3104 4.61249L13.0297 4.45051C12.7304 4.25886 12.5003 3.97627 12.3729 3.64412L12.0946 2.81296C11.9116 2.26294 11.8201 1.98794 11.6023 1.83064C11.3845 1.67334 11.0951 1.67334 10.5165 1.67334H9.58753C9.0089 1.67334 8.71958 1.67334 8.50177 1.83064C8.28396 1.98794 8.19247 2.26294 8.00949 2.81296L7.73119 3.64412C7.60379 3.97627 7.37363 4.25886 7.07439 4.45051L6.79366 4.61249C6.4447 4.79178 6.04374 4.84178 5.66157 4.75365L4.64471 4.46723C4.0461 4.29736 3.74679 4.21243 3.48214 4.32006C3.2175 4.4277 3.06196 4.69763 2.75088 5.23749L2.33956 5.95132C2.04797 6.45737 1.90217 6.71039 1.93047 6.97974C1.95876 7.24909 2.15394 7.46614 2.5443 7.90026L3.4035 8.86085C3.6135 9.1267 3.76259 9.59001 3.76259 10.0065C3.76259 10.4233 3.61355 10.8865 3.40352 11.1524L2.54431 12.113C2.15395 12.5471 1.95877 12.7642 1.93047 13.0335C1.90217 13.3029 2.04797 13.5559 2.33956 14.062L2.75087 14.7758C3.06194 15.3156 3.2175 15.5856 3.48214 15.6932C3.7468 15.8008 4.04611 15.7159 4.64472 15.546L5.66154 15.2596C6.04377 15.1714 6.44481 15.2215 6.79381 15.4008L7.0745 15.5628C7.37367 15.7545 7.60379 16.037 7.73117 16.3691L8.00949 17.2004C8.19247 17.7504 8.28396 18.0254 8.50177 18.1827C8.71958 18.34 9.0089 18.34 9.58753 18.34H10.5165C11.0951 18.34 11.3845 18.34 11.6023 18.1827C11.8201 18.0254 11.9116 17.7504 12.0946 17.2004L12.3729 16.3691C12.5003 16.037 12.7304 15.7545 13.0295 15.5628L13.3102 15.4008C13.6592 15.2215 14.0603 15.1714 14.4425 15.2596L15.4593 15.546C16.0579 15.7159 16.3572 15.8008 16.6219 15.6932C16.8865 15.5856 17.0421 15.3156 17.3532 14.7758L17.3532 14.7758L17.7645 14.062C18.0561 13.5559 18.2019 13.3029 18.1736 13.0335C18.1453 12.7642 17.9501 12.5471 17.5597 12.113L16.7005 11.1524C16.4905 10.8865 16.3415 10.4233 16.3415 10.0065C16.3415 9.59001 16.4905 9.1267 16.7005 8.86085L17.5597 7.90026C17.9501 7.46614 18.1453 7.24909 18.1736 6.97974C18.2019 6.71039 18.0561 6.45737 17.7645 5.95132Z" stroke="#677487" stroke-width="1.5" stroke-linecap="round"/>
<path d="M12.9329 10.0002C12.9329 11.611 11.6271 12.9168 10.0163 12.9168C8.40545 12.9168 7.09961 11.611 7.09961 10.0002C7.09961 8.38933 8.40545 7.0835 10.0163 7.0835C11.6271 7.0835 12.9329 8.38933 12.9329 10.0002Z" stroke="#677487" stroke-width="1.5"/>
</svg>
