<svg width="20" height="20" viewBox="0 0 20 20" fill="none" xmlns="http://www.w3.org/2000/svg">
<circle cx="14.1667" cy="14.9999" r="1.66667" stroke="#677487" stroke-width="1.5"/>
<ellipse cx="5.83329" cy="14.9999" rx="1.66667" ry="1.66667" stroke="#677487" stroke-width="1.5"/>
<path d="M4.16663 14.977C3.25269 14.9314 2.68255 14.7954 2.27682 14.3897C1.8711 13.984 1.73514 13.4139 1.68958 12.4999M7.49996 14.9999H12.5M15.8333 14.977C16.7472 14.9314 17.3174 14.7954 17.7231 14.3897C18.3333 13.7795 18.3333 12.7974 18.3333 10.8333V9.16659H14.4166C13.7962 9.16659 13.486 9.16659 13.2349 9.08501C12.7275 8.92015 12.3297 8.52234 12.1649 8.01495C12.0833 7.76389 12.0833 7.45368 12.0833 6.83325C12.0833 5.90261 12.0833 5.43729 11.9609 5.06071C11.7136 4.29961 11.1169 3.70291 10.3558 3.45561C9.97925 3.33325 9.51393 3.33325 8.58329 3.33325H1.66663" stroke="#677487" stroke-width="1.5" stroke-linecap="round" stroke-linejoin="round"/>
<path d="M1.66663 6.6665H6.66663" stroke="#677487" stroke-width="1.5" stroke-linecap="round" stroke-linejoin="round"/>
<path d="M1.66663 9.1665H4.99996" stroke="#677487" stroke-width="1.5" stroke-linecap="round" stroke-linejoin="round"/>
<path d="M12.0833 5H13.6009C14.8137 5 15.4201 5 15.9136 5.29476C16.4071 5.58952 16.6946 6.12343 17.2696 7.19125L18.3333 9.16667" stroke="#677487" stroke-width="1.5" stroke-linecap="round" stroke-linejoin="round"/>
</svg>
