<svg width="20" height="20" viewBox="0 0 20 20" fill="none" xmlns="http://www.w3.org/2000/svg">
<path d="M4.23387 12.7471C3.21864 13.3613 0.556772 14.6156 2.17803 16.1851C2.97 16.9518 3.85205 17.5001 4.961 17.5001H11.2889C12.3979 17.5001 13.2799 16.9518 14.0719 16.1851C15.6931 14.6156 13.0313 13.3613 12.0161 12.7471C9.63536 11.3066 6.61456 11.3066 4.23387 12.7471Z" stroke="#677487" stroke-width="1.5" stroke-linecap="round" stroke-linejoin="round"/>
<path d="M11.2499 5.83333C11.2499 7.67428 9.75753 9.16667 7.91659 9.16667C6.07564 9.16667 4.58325 7.67428 4.58325 5.83333C4.58325 3.99238 6.07564 2.5 7.91659 2.5C9.75753 2.5 11.2499 3.99238 11.2499 5.83333Z" stroke="#677487" stroke-width="1.5"/>
<path d="M14.1666 4.16675L18.3333 4.16675" stroke="#677487" stroke-width="1.5" stroke-linecap="round" stroke-linejoin="round"/>
<path d="M14.1666 6.66675L18.3333 6.66675" stroke="#677487" stroke-width="1.5" stroke-linecap="round" stroke-linejoin="round"/>
<path d="M16.6666 9.16675L18.3333 9.16675" stroke="#677487" stroke-width="1.5" stroke-linecap="round" stroke-linejoin="round"/>
</svg>
